<?xml version="1.0" encoding="utf-8"?>
<!-- Generator: Adobe Illustrator 22.1.0, SVG Export Plug-In . SVG Version: 6.00 Build 0)  -->
<svg version="1.1" id="Layer_1" xmlns="http://www.w3.org/2000/svg" xmlns:xlink="http://www.w3.org/1999/xlink" x="0px" y="0px"
	 viewBox="0 0 1500 1500" style="enable-background:new 0 0 1500 1500;" xml:space="preserve">
<style type="text/css">
	.st0{fill:#29A361;}
	.st1{fill:#248F55;}
	.st2{fill:#34CB79;}
	.st3{fill:#2FB86E;}
</style>
<g>
	<path class="st0" d="M626.3,476.3l-62.2,118c-4.3,7.5-1.1,17.2,5.3,21.5l96.6,56.8c7.5,4.3,17.2,2.1,20.4-6.5l118-214.6H667.1
		C650,451.6,634.9,461.4,626.3,476.3z"/>
	<path class="st1" d="M806.5,451.6l-118,214.7c-4.3,7.5-14,10.8-20.4,6.5l-25.7-15c6.5,1.1,12.9-2.1,16.1-7.5L768,451.7L806.5,451.6
		L806.5,451.6z"/>
	<path class="st2" d="M935.3,565.4l-43-88c-7.5-16.1-23.6-25.7-40.8-25.7H729.3L823.7,618h-1.1c-6.5,3.2-5.3,11.8,0,14l81.6,32.3
		c4.3,1.1,7.5,0,9.6-4.3l31.2-84.8C948.2,568.5,941.7,563.2,935.3,565.4z"/>
	<path class="st3" d="M945,575l-31.2,84.8c-1.1,4.3-5.3,5.3-9.6,4.3l-24.7-9.6l28.9-79.3c2.1-4.3-1.1-8.6-5.3-9.6
		c-3.2-1.1-6.5-3.2-8.6-7.5l-38.6-80.4c-7.5-16.1-23.6-25.7-40.8-25.7h36.5c17.2,0,33.3,9.6,40.8,25.7l43,88
		C941.7,563.2,948.2,568.5,945,575z"/>
	<path class="st0" d="M853.8,904.4c-1.1-5.3-7.5-6.5-10.8-3.2l-63.3,66.5c-2.1,2.1-2.1,6.5,0,9.6l64.4,66.5
		c3.2,4.3,9.6,2.1,10.8-3.2h94.4c17.2,0,33.3-9.6,40.8-25.7l53.6-109.5L853.8,904.4L853.8,904.4z"/>
	<path class="st1" d="M933.2,904.4l30,48.3c6.5,10.8,7.5,24.7,2.1,36.5l-12.9,25.7c-7.5,16.1-23.6,25.7-40.8,25.7H947
		c17.2,0,33.3-9.6,40.8-25.7l53.6-109.5L933.2,904.4L933.2,904.4z"/>
	<path class="st0" d="M725,1026.7V910.8c0-8.6-6.5-16.1-15-16.1H456.8l65.4,123.3c8.6,15,23.6,24.7,40.8,24.7h147
		C718.6,1042.8,725,1036.4,725,1026.7z"/>
	<path class="st1" d="M564.1,894.7l-55.9,96.6l-51.5-96.6H564.1z"/>
	<path class="st1" d="M725,910.8v117c0,8.6-6.5,16.1-15,16.1h-40.8c8.6,0,15-7.5,15-16.1v-117c0-8.6-6.5-16.1-15-16.1H710
		C718.6,894.7,725,901.1,725,910.8z"/>
	<path class="st2" d="M601.7,791.8l-11.8-88c-1.1-4.3-4.3-7.5-8.6-6.5l-85.9,11.8c-6.5,1.1-8.6,8.6-4.3,14l-53.6,80.5
		c-9.6,15-10.8,34.4-2.1,50.4l58,110.5l95.4-165.2l0,0C595.2,803.5,602.7,798.2,601.7,791.8z"/>
	<path class="st3" d="M589.9,799.2L589.9,799.2l-96.6,165.2L474,926.9l77.2-135.2l2.1-3.2c1.1-2.1,3.2-3.2,5.3-2.1l0,0
		c4.3,1.1,9.6-3.2,8.6-8.6l-9.6-77.2l23.6-4.3c4.3-1.1,8.6,2.1,8.6,6.5l11.8,88C602.7,798.2,595.2,803.5,589.9,799.2z"/>
	<path class="st2" d="M1068.3,796l-74-110.5c-4.3-6.5-12.9-8.6-20.4-4.3l-96.6,58c-7.5,4.3-9.6,15-5.3,22.5l136.2,213.5l63.3-128.8
		C1079.1,829.3,1078.1,810,1068.3,796z"/>
	<path class="st3" d="M1071.5,844.3l-63.3,128.8l-21.5-33.3l47.2-95.5c7.5-16.1,6.4-34.4-3.2-48.3l-71.9-107.3l15-8.6
		c6.5-4.3,16.1-2.1,20.4,4.3l74,111.6C1078.1,810,1079.1,829.3,1071.5,844.3z"/>
</g>
</svg>
