<?xml version="1.0" encoding="utf-8"?>
<!-- Generator: Adobe Illustrator 22.1.0, SVG Export Plug-In . SVG Version: 6.00 Build 0)  -->
<svg version="1.1" id="Layer_1" xmlns="http://www.w3.org/2000/svg" xmlns:xlink="http://www.w3.org/1999/xlink" x="0px" y="0px"
	 viewBox="0 0 160.5 162.9" style="enable-background:new 0 0 160.5 162.9;" xml:space="preserve">
<style type="text/css">
	.st0{fill:none;stroke:#B7B7B7;stroke-width:5;stroke-miterlimit:10;}
</style>
<path class="st0" d="M131.1,154.4H30.5c-11.4,0-20.6-9.2-20.6-20.6V33.1c0-11.4,9.2-20.6,20.6-20.6h100.6c11.4,0,20.6,9.2,20.6,20.6
	v100.6C151.8,145.1,142.5,154.4,131.1,154.4z"/>
<path class="st0" d="M82,57.6c0.7-0.7,1.6-1.3,2.3-2.1c2.7-2.9,5.8-5.2,9.5-6.6c6.2-2.3,12.2-2,18,1.4c3.5,2.1,6,5.2,7.9,8.8
	c3,5.7,3.2,11.6,1.4,17.7c-1.3,4.5-3.5,8.5-6.2,12.2c-3.4,4.9-7.4,9.2-11.7,13.3c-4.7,4.6-9.9,8.7-15.1,12.7
	c-1.9,1.4-3.8,2.8-5.7,4.2c-0.2,0.2-0.4,0.2-0.7,0c-6.1-4.4-12.1-9-17.8-14.1c-4.8-4.3-9.4-9-13.3-14.2c-3-4-5.6-8.2-7.2-13
	c-1.2-3.4-1.8-7-1.4-10.6c0.4-4.1,1.8-7.8,4.2-11.2c2.3-3.3,5.2-5.8,8.9-7.3c3.4-1.4,6.8-1.8,10.4-1.2c5.7,0.8,10.4,3.6,14.3,7.8
	C80.5,56.3,81.3,57,82,57.6z"/>
</svg>
