<?xml version="1.0" encoding="utf-8"?>
<!-- Generator: Adobe Illustrator 22.1.0, SVG Export Plug-In . SVG Version: 6.00 Build 0)  -->
<svg version="1.1" xmlns="http://www.w3.org/2000/svg" xmlns:xlink="http://www.w3.org/1999/xlink" x="0px" y="0px"
	 viewBox="0 0 160 160" style="enable-background:new 0 0 160 160;" xml:space="preserve">
<style type="text/css">
	.st0{display:none;}
	.st1{display:inline;fill:#B7B7B8;}
	.st2{fill:#B8B8B9;}
	.st3{fill:none;stroke:#B7B7B7;stroke-width:5;stroke-miterlimit:10;}
	.st4{display:inline;fill:#B7B7B7;}
</style>
<g id="trash" class="st0">
	<rect x="0.4" y="163.5" class="st1" width="160" height="5.7"/>
	
		<rect x="86.4" y="77.3" transform="matrix(-1.148509e-14 -1 1 -1.148509e-14 86.2626 246.5707)" class="st1" width="160" height="5.7"/>
</g>
<g id="menu">
	<g>
		<path class="st2" d="M96.9,53.2c0.1-11.9-1.4-10.7,10.6-10.7c13,0,11.3-1.3,11.3,11.5c0.1,10.4,0,10.4-10.2,10.4
			c-0.2,0-0.3,0-0.5,0C94.7,64.5,97.1,64.6,96.9,53.2z"/>
		<path class="st2" d="M107.6,117.7c-12-0.1-10.7,1.4-10.7-10.6c0-11.8-2.1-11.4,11.6-11.4c1.3,0,2.7,0.1,4,0
			c4.8-0.5,6.7,1.6,6.4,6.4c-0.2,3.1-0.3,6.3,0,9.5c0.5,4.9-1.6,6.7-6.3,6.1C110.9,117.5,109.2,117.7,107.6,117.7z"/>
		<path class="st2" d="M52.9,42.5c12.3,0.1,10.9-1.4,11,10.8c0,11.2,0,11.2-11,11.2c-11,0-11,0-11-10.7c0-0.2,0-0.3,0-0.5
			C42,41.2,40.5,42.6,52.9,42.5z"/>
		<path class="st2" d="M80.2,42.5c12,0,10.7-1.1,10.7,10.6c0,11.5,1.2,11.5-11.2,11.5C69,64.5,69,64.5,69,54.1c0-0.2,0-0.3,0-0.5
			C69.1,41.2,67.3,42.6,80.2,42.5z"/>
		<path class="st2" d="M52.6,90.7c-12,0-10.6,1-10.7-10.6c-0.1-11.6-1.1-11.5,11.3-11.4c10.7,0.1,10.7,0,10.7,10.5
			c0,0.2,0,0.3,0,0.5C63.7,92,65.3,90.6,52.6,90.7z"/>
		<path class="st2" d="M79.7,90.7C67.6,90.6,69,91.7,69,80.1c-0.1-12-1-11.6,11.7-11.5c1.5,0,3,0.1,4.5,0c4.3-0.3,6.1,1.7,5.8,6
			c-0.2,3.3-0.3,6.7,0,9.9c0.5,4.9-1.6,6.7-6.3,6.2C83,90.5,81.4,90.7,79.7,90.7z"/>
		<path class="st2" d="M107.5,90.7c-12.2,0-10.6,1-10.6-10.6c0-11.6-2.2-11.5,11.6-11.4c1.3,0,2.7,0.1,4,0c4.7-0.4,6.8,1.6,6.4,6.4
			c-0.2,3.1-0.2,6.3,0,9.4c0.3,4.7-1.5,6.9-6.4,6.2C110.9,90.5,109.2,90.7,107.5,90.7z"/>
		<path class="st2" d="M52.9,117.7c-12.5-0.1-10.9,1.6-11-11.2c-0.1-10.7,0-10.7,10.9-10.7c11,0,11,0,11,11.1
			C63.8,119.1,65.2,117.6,52.9,117.7z"/>
		<path class="st2" d="M90.9,107.6c0,11.3,1,10.1-10.1,10.1c-13.6-0.1-11.7,1.8-11.8-11.9c-0.1-10,0-10,10.1-10
			C92,95.7,90.9,95.1,90.9,107.6z"/>
	</g>
	<path class="st3" d="M130.7,151.1H30.1c-11.4,0-20.6-9.2-20.6-20.6V29.8c0-11.4,9.2-20.6,20.6-20.6h100.6
		c11.4,0,20.6,9.2,20.6,20.6v100.6C151.4,141.8,142.1,151.1,130.7,151.1z"/>
</g>
<g id="like" class="st0">
	<path class="st4" d="M79.9,261.1c0.7-0.7,1.6-1.3,2.3-2.1c2.7-2.9,5.8-5.2,9.5-6.6c6.2-2.3,12.2-2,18,1.4c3.5,2.1,6,5.2,7.9,8.8
		c3,5.7,3.2,11.6,1.4,17.7c-1.3,4.5-3.5,8.5-6.2,12.2c-3.4,4.9-7.4,9.2-11.7,13.3c-4.7,4.6-9.9,8.7-15.1,12.7
		c-1.9,1.4-3.8,2.8-5.7,4.2c-0.2,0.2-0.4,0.2-0.7,0c-6.1-4.4-12.1-9-17.8-14.1c-4.8-4.3-9.4-9-13.3-14.2c-3-4-5.6-8.2-7.2-13
		c-1.2-3.4-1.8-7-1.4-10.6c0.4-4.1,1.8-7.8,4.2-11.2c2.3-3.3,5.2-5.8,8.9-7.3c3.4-1.4,6.8-1.8,10.4-1.2c5.7,0.8,10.4,3.6,14.3,7.8
		C78.4,259.8,79.2,260.5,79.9,261.1z"/>
</g>
<g id="left" class="st0">
	<path class="st1" d="M-93.1,166.6c3.3-0.2,5.2,1.7,6.6,4.4c1.5,3.1,0.4,5.6-1.7,7.7c-6.8,6.9-13.6,13.7-20.4,20.5
		c-4.9,4.9-4.9,4.9,0.1,10c6.4,6.4,12.7,12.7,19.1,19.1c4.3,4.3,4.6,8.4,1.2,11.7c-3.2,3-7.2,2.5-11.3-1.6
		c-10-10-19.9-20.1-30.1-29.9c-3.3-3.2-3.2-5.4,0.1-8.5c10.2-9.8,20.1-19.9,30.1-30C-97.8,168-95.8,166.6-93.1,166.6z"/>
</g>
<g id="right" class="st0">
	<path class="st1" d="M64.5,117.8c-3.3,0.2-5.2-1.7-6.6-4.4c-1.5-3.1-0.4-5.6,1.7-7.7c6.8-6.9,13.6-13.7,20.4-20.5
		c4.9-4.9,4.9-4.9-0.1-10C73.7,68.9,67.3,62.6,61,56.2c-4.3-4.3-4.6-8.4-1.2-11.7c3.2-3,7.2-2.5,11.3,1.6c10,10,19.9,20.1,30.1,29.9
		c3.3,3.2,3.2,5.4-0.1,8.5c-10.2,9.8-20.1,19.9-30.1,30C69.2,116.4,67.3,117.9,64.5,117.8z"/>
</g>
</svg>
